<?xml version="1.0" standalone="no"?>
<!DOCTYPE svg PUBLIC "-//W3C//DTD SVG 20010904//EN"
 "http://www.w3.org/TR/2001/REC-SVG-20010904/DTD/svg10.dtd">
<svg version="1.0" xmlns="http://www.w3.org/2000/svg"
 width="1024.000000pt" height="1024.000000pt" viewBox="0 0 1024.000000 1024.000000"
 preserveAspectRatio="xMidYMid meet">

<g transform="translate(0.000000,1024.000000) scale(0.100000,-0.100000)"
fill="#000000" stroke="none">
<path d="M4910 8439 c-695 -51 -1341 -303 -1890 -738 -127 -101 -395 -370
-504 -506 -231 -290 -413 -608 -534 -935 -86 -230 -156 -504 -182 -715 -6 -49
-14 -101 -16 -115 -13 -63 -16 -565 -5 -672 71 -678 343 -1312 782 -1823 97
-113 318 -330 424 -416 458 -372 1055 -638 1625 -724 166 -25 266 -30 555 -29
376 1 544 22 880 109 879 229 1637 821 2084 1630 180 325 327 783 377 1174 21
158 24 630 6 776 -32 252 -118 593 -208 824 -272 694 -770 1293 -1384 1666
-311 189 -633 323 -972 405 -334 80 -714 113 -1038 89z m100 -1484 c0 -1226 0
-1255 -19 -1255 -10 0 -96 -63 -190 -140 -147 -121 -174 -140 -196 -134 l-26
6 3 926 c3 895 4 925 22 936 75 44 115 77 143 119 43 64 57 116 56 203 -2 120
-69 224 -185 286 -62 33 -210 33 -283 0 -63 -29 -129 -92 -163 -157 -23 -43
-27 -62 -27 -140 0 -79 4 -96 28 -143 35 -67 92 -124 157 -157 l50 -25 0
-1055 0 -1056 -137 3 -138 3 -2 747 -1 748 -56 71 -55 72 39 45 c38 43 70 119
70 167 0 85 -73 195 -156 235 -61 30 -152 31 -215 3 -126 -56 -187 -220 -129
-350 29 -66 64 -101 135 -133 46 -22 72 -43 113 -93 l52 -65 0 -726 0 -726
-355 0 -355 0 0 428 0 427 54 23 c105 46 192 159 217 284 31 155 -63 335 -213
404 -57 26 -73 29 -168 29 -93 0 -112 -3 -162 -27 -148 -69 -251 -260 -219
-408 32 -148 133 -260 274 -304 16 -5 17 -32 15 -428 l-3 -423 -480 -3 c-264
-1 -485 0 -491 2 -13 5 7 256 35 431 25 149 86 392 137 545 69 205 234 518
387 734 292 413 719 776 1191 1013 270 135 691 260 991 292 144 16 165 18 213
19 l42 2 0 -1255z m-462 775 c100 -61 94 -203 -11 -250 -54 -25 -78 -25 -126
0 -82 41 -108 111 -70 182 46 82 135 112 207 68z m1426 -86 c26 -9 62 -31 81
-49 31 -29 35 -38 35 -84 0 -170 -168 -259 -345 -183 -57 24 -66 31 -71 60
-12 64 27 171 81 222 51 48 138 61 219 34z m-2103 -544 c30 -17 51 -65 40 -93
-12 -30 -48 -57 -77 -57 -36 0 -74 37 -74 73 0 37 6 47 40 70 28 20 44 21 71
7z m3286 -251 c60 -29 68 -43 68 -118 0 -55 -5 -72 -26 -104 -70 -101 -198
-133 -308 -77 -56 28 -65 44 -63 112 2 66 38 146 77 172 71 47 172 53 252 15z
m-3997 -281 c24 -13 56 -39 71 -58 29 -37 46 -110 25 -110 -6 0 -3 -7 7 -14
17 -13 14 -51 -4 -40 -5 3 -6 -2 -3 -11 9 -22 -40 -81 -85 -105 -55 -28 -133
-36 -153 -17 -9 9 -18 14 -20 12 -8 -8 -85 70 -102 102 -23 46 -20 109 9 171
20 43 32 56 67 72 59 27 133 26 188 -2z m3131 -205 c-5 -10 -25 -33 -44 -51
l-35 -34 6 -547 c3 -321 1 -550 -4 -554 -5 -3 -48 -3 -95 0 l-86 6 -7 303 c-4
167 -4 436 0 599 l7 295 134 0 c124 0 133 -1 124 -17z m-1271 -2892 c0 -964
-3 -1472 -10 -1476 -5 -3 -52 -1 -102 4 -51 6 -133 15 -183 21 -410 46 -905
224 -1261 453 -262 168 -467 335 -630 513 -149 163 -264 305 -264 326 0 4 27
8 59 8 50 0 65 -4 86 -24 15 -14 47 -32 72 -40 83 -28 154 -18 236 34 47 30
48 30 195 30 l147 0 25 -47 c33 -64 104 -133 165 -163 43 -22 64 -25 150 -25
81 1 109 5 148 23 70 32 140 102 173 175 25 53 29 75 29 147 0 71 -4 94 -27
142 -34 73 -99 143 -163 176 -68 35 -189 42 -270 16 -77 -24 -163 -103 -196
-179 l-24 -55 -116 0 -116 0 -12 43 c-14 44 -49 99 -85 130 -96 83 -269 72
-348 -22 l-27 -31 -159 0 -159 0 -55 118 c-137 290 -232 622 -273 952 -8 68
-15 146 -15 172 l0 48 1505 0 1505 0 0 -1469z m610 870 c0 -583 1 -600 19
-606 32 -10 89 -81 101 -126 37 -135 -66 -279 -200 -279 -61 0 -104 18 -150
63 -95 93 -92 233 9 319 l41 35 0 590 c0 324 3 593 7 596 3 4 44 7 90 7 l83 0
0 -599z m1153 427 c39 -46 3 -118 -59 -118 -23 0 -38 8 -53 26 -35 45 -26 89
23 110 37 15 64 10 89 -18z m324 0 c28 -27 30 -67 3 -96 -42 -45 -130 -13
-130 48 0 62 80 93 127 48z m-934 -164 c28 -19 50 -47 67 -81 l25 -52 525 -1
c289 0 530 -4 535 -8 6 -4 10 -42 10 -84 l0 -78 -549 0 -548 0 -32 -27 c-45
-38 -88 -53 -150 -53 -70 0 -102 12 -149 58 -110 107 -68 296 78 350 54 20
140 9 188 -24z m1359 -40 c28 -15 30 -18 24 -57 -7 -46 -35 -77 -70 -77 -80 0
-93 115 -16 143 24 9 29 8 62 -9z m-792 -724 l0 -160 330 0 c202 0 330 4 330
10 0 21 75 80 121 95 131 44 269 -56 269 -195 0 -92 -66 -175 -160 -200 -69
-18 -158 14 -207 75 l-28 35 -372 0 -373 0 0 -27 c0 -53 -21 -101 -55 -132
-70 -61 -163 -50 -222 27 -84 110 0 252 143 240 l54 -5 0 114 0 113 -210 0
-210 0 0 -329 0 -330 31 -18 c40 -23 86 -94 94 -144 10 -58 -11 -131 -51 -178
-19 -22 -43 -43 -54 -46 -19 -6 -20 -19 -22 -323 l-3 -317 -60 -17 c-33 -9
-70 -17 -82 -17 l-23 -1 0 334 0 333 -39 26 c-50 33 -80 83 -88 146 -8 72 16
129 78 185 l49 44 0 411 0 411 380 0 380 0 0 -160z m-2973 -251 c34 -13 80
-55 99 -91 16 -32 19 -118 3 -118 -5 0 -8 -4 -5 -8 11 -18 -36 -74 -77 -92
-79 -36 -170 -16 -216 48 -60 85 -49 181 28 240 35 26 52 32 91 32 27 0 61 -5
77 -11z m-837 -29 c27 -27 25 -66 -5 -95 -29 -30 -68 -32 -95 -5 -29 29 -26
74 6 99 34 26 68 27 94 1z m3912 -387 c33 -30 16 -110 -25 -114 -88 -8 -125
43 -76 105 24 31 72 35 101 9z m475 -15 c30 -28 29 -63 -2 -93 -47 -48 -115
-22 -117 44 -2 65 71 95 119 49z m-748 -514 c13 -9 29 -32 37 -50 12 -29 12
-39 0 -68 -26 -64 -97 -76 -147 -27 -61 61 -23 160 61 161 14 0 36 -7 49 -16z
m-944 -373 l0 -235 -25 -6 c-14 -4 -52 -10 -83 -14 l-57 -7 0 251 0 251 83 -3
82 -3 0 -234z"/>
<path d="M2511 5778 c-123 -64 -147 -214 -49 -305 65 -60 175 -58 241 5 43 41
60 80 59 141 -1 130 -139 218 -251 159z m99 -126 c46 -37 -9 -106 -59 -75 -23
15 -27 64 -5 80 24 18 38 16 64 -5z"/>
<path d="M3507 5788 c-82 -22 -148 -123 -133 -202 11 -53 55 -115 96 -136 122
-62 261 24 262 163 1 86 -49 154 -130 177 -43 11 -44 11 -95 -2z"/>
<path d="M3226 6347 c3 -10 9 -15 12 -12 3 3 0 11 -7 18 -10 9 -11 8 -5 -6z"/>
<path d="M3200 6330 c0 -5 5 -10 11 -10 5 0 7 5 4 10 -3 6 -8 10 -11 10 -2 0
-4 -4 -4 -10z"/>
<path d="M2627 4676 c-164 -61 -256 -237 -213 -406 30 -117 111 -207 221 -245
177 -59 358 16 434 183 l24 52 598 0 598 0 50 -49 51 -50 0 -688 -1 -688 -34
-35 c-100 -99 -97 -278 7 -377 138 -132 365 -79 424 101 20 60 15 155 -12 211
-25 53 -86 110 -140 131 l-44 17 0 667 0 668 23 6 c38 9 104 73 131 128 46 91
32 204 -33 279 -102 120 -301 119 -404 -2 -21 -24 -43 -60 -49 -81 l-11 -38
-578 0 -579 0 -21 41 c-30 60 -96 127 -154 157 -42 22 -66 26 -150 29 -68 2
-112 -1 -138 -11z m206 -179 c21 -13 47 -36 57 -53 25 -37 26 -89 3 -104 -16
-9 -15 -10 5 -5 27 8 27 6 1 -48 -52 -106 -192 -127 -271 -40 -45 50 -60 136
-33 199 29 69 161 98 238 51z m1716 -17 c29 -15 45 -64 30 -92 -28 -53 -84
-64 -124 -23 -30 30 -32 64 -4 99 22 28 64 35 98 16z m41 -1870 c43 -43 8
-120 -54 -120 -37 0 -49 7 -65 38 -14 27 -8 63 15 86 22 23 80 20 104 -4z"/>
<path d="M2850 4305 c-11 -13 -10 -14 4 -9 9 3 16 10 16 15 0 13 -6 11 -20 -6z"/>
</g>
</svg>
